# xmcd CD database file
#
# Track frame offsets:
#	150
#	21782
#	38767
#	56100
#	77092
#	96187
#	118537
#	139960
#	157492
#	178462
#	206302
#
# Disc length: 4440 seconds
#
# Revision: 0
# Processed by: cddbd v1.5PL3 Copyright (c) Steve Scherf et al.
# Submitted via: CDex 1.51
#
DISCID=9d11560b
DTITLE=畠山美由紀 - Fragile
DYEAR=2002
DGENRE=
TTITLE0=悪魔を憐れむ歌
TTITLE1=Don't Know Why
TTITLE2=見つめていたい
TTITLE3=Wonderful Life
TTITLE4=いそしぎ
TTITLE5=O Grande Amor
TTITLE6=雨の街を
TTITLE7=I Love You,Porgy
TTITLE8=夏の思い出
TTITLE9=The Water Is Wide
TTITLE10=PC Section---deselect this---
EXTD=YEAR: 2002
EXTT0=
EXTT1=
EXTT2=
EXTT3=
EXTT4=
EXTT5=
EXTT6=
EXTT7=
EXTT8=
EXTT9=
EXTT10=
PLAYORDER=
